<svg version="1.2" xmlns="http://www.w3.org/2000/svg" viewBox="0 0 856 856" width="192" height="192">
	<title>Proyecto nuevo</title>
	<style>
		.s0 { fill: #ffffff } 
		.s1 { fill: #000000 } 
	</style>
	<path id="Capa 3" fill-rule="evenodd" class="s0" d="m428 849c-232.8 0-421-188.2-421-421 0-232.8 188.2-421 421-421 232.8 0 421 188.2 421 421 0 232.8-188.2 421-421 421z"/>
	<path id="B" class="s1" aria-label="B"  d="m281.4 743q-50.7 0-101.4-2.7-49.8-3.5-104-15.1v-597.5q42.7-8 93.4-11.5 50.6-4.5 94.2-4.5 58.7 0 107.6 8.9 49.8 8 85.4 28.5 35.5 20.4 55.1 54.2 20.4 32.9 20.4 81.8 0 73.8-71.1 116.5 58.7 22.2 80 60.4 21.4 38.3 21.4 86.3 0 96.9-71.2 145.8-70.2 48.9-209.8 48.9zm16.9-276.5h-87.2v159.1q15.2 1.8 32.9 2.7 17.8 0.9 39.2 0.9 62.2 0 100.4-17.8 38.3-17.8 38.3-65.8 0-42.7-32-60.4-32-18.7-91.6-18.7zm-87.2-240.1v134.3h67.6q64 0 91.6-16 27.6-16.9 27.6-53.4 0-37.3-28.5-52.4-28.4-15.2-83.6-15.2-17.7 0-38.2 0.9-20.4 0-36.5 1.8z"/>
	<path id="V" class="s1" aria-label="V"  d="m647.8 736h-72.3q-19.8-41.9-39.1-87.3-19.3-45.3-36.6-89.6-17.4-44.4-32.3-84.9-14.5-40.5-25.1-72.3h82.9q9.7 29 20.8 62.7 11.5 33.3 23.1 66.5 12 33.3 23.1 63.7 11.1 30.3 20.8 52.5 9.1-22.2 20.2-52.5 11.6-30.4 23.1-63.7 12.1-33.2 23.2-66.5 11.6-33.7 21.2-62.7h80q-11.1 31.8-25.5 72.3-14.5 40.5-31.8 84.9-17.4 44.3-36.7 89.6-19.3 45.4-39 87.3z"/>
	<path id="C" class="s1" aria-label="C"  d="m674.2 427.5q-77.9 0-118.9-43.4-40.6-43.3-40.6-123.1 0-39.6 12.4-70.5 12.5-31.4 34.1-52.6 21.7-21.7 51.7-32.7 30-11.1 65-11.1 20.3 0 36.9 3.2 16.6 2.8 29 6.9 12.5 3.7 20.8 7.9 8.3 4.1 12 6.4l-20.8 58.1q-14.7-7.8-34.6-13.3-19.3-5.6-44.2-5.6-16.6 0-32.8 5.6-15.6 5.5-28.1 17.9-12 12-19.4 31.4-7.3 19.4-7.3 47 0 22.2 4.6 41.5 5.1 18.9 15.7 32.8 11 13.8 28.5 22.1 17.6 7.8 42.5 7.8 15.6 0 28.1-1.8 12.4-1.9 22.1-4.2 9.7-2.7 17.1-6 7.4-3.2 13.4-6l19.8 57.7q-15.2 9.2-42.9 16.6-27.7 7.4-64.1 7.4z"/>
</svg>