<svg version="1.2" xmlns="http://www.w3.org/2000/svg" viewBox="0 0 239 239" width="64" height="64">
	<title>bv</title>
	<style>
		.s0 { fill: #f8f1ee } 
		.s1 { fill: #236017 } 
	</style>
	<path id="Forma 1" fill-rule="evenodd" class="s0" d="m20 0h199c11 0 20 9 20 20v199c0 11-9 20-20 20h-199c-11 0-20-9-20-20v-199c0-11 9-20 20-20z"/>
	<path id="B" class="s1" aria-label="B"  d="m69.4 221h-62.1l1.8-10h14.3l18.1-103.9h-14.2l1.7-10h66.1q20.4 0 29.3 7.6 9 7.6 6.2 23-1.9 11-10.1 17.5-8.1 6.5-22.3 8.1 16.5 1.8 23.9 10 7.6 8.2 5.2 21.8-3.2 18.5-17.3 27.2-14 8.7-40.6 8.7zm0.9-113.9l-7.3 41.7h9.8q12.8 0 19.9-5.2 7.1-5.2 9-15.9 1.9-10.8-3.3-15.7-5.1-4.9-18.3-4.9zm-9.1 51.6l-9.1 52.3h10.7q14.3 0 22.2-6.4 8-6.3 10.3-19.5 2.4-13.2-3.5-19.8-5.8-6.6-19.9-6.6z"/>
	<path id="V" class="s1" aria-label="V"  d="m199.5 14.1h33.2l-1.7 10h-9.4l-62 113.9h-17.8l-22-113.9h-10.6l1.8-10h52.3l-1.8 10h-10.9l15.8 82.1 44.7-82.1h-13.3z"/>
</svg>